<?xml version="1.0" standalone="no"?><!DOCTYPE svg PUBLIC "-//W3C//DTD SVG 1.1//EN" "http://www.w3.org/Graphics/SVG/1.1/DTD/svg11.dtd"><svg t="1652337147928" class="icon" viewBox="0 0 1025 1024" version="1.1" xmlns="http://www.w3.org/2000/svg" p-id="1019" xmlns:xlink="http://www.w3.org/1999/xlink" width="48.046875" height="48"><defs><style type="text/css">@font-face { font-family: feedback-iconfont; src: url("//at.alicdn.com/t/font_1031158_u69w8yhxdu.woff2?t=1630033759944") format("woff2"), url("//at.alicdn.com/t/font_1031158_u69w8yhxdu.woff?t=1630033759944") format("woff"), url("//at.alicdn.com/t/font_1031158_u69w8yhxdu.ttf?t=1630033759944") format("truetype"); }
</style></defs><path d="M983.686522 313.02204A512.002556 512.002556 0 1 0 1023.951359 512.045378a508.998672 508.998672 0 0 0-40.264837-199.023338z m-82.638785 363.022659A423.483827 423.483827 0 1 1 934.090469 512.045378a421.374717 421.374717 0 0 1-33.042732 163.999321z m-231.618682-162.529335a44.930445 44.930445 0 1 0 0-89.860891H557.390548v-0.383474l136.644796-136.644797a44.930445 44.930445 0 0 0-63.528965-63.465053L512.65184 341.207426 394.605563 223.161149a44.930445 44.930445 0 0 0-63.528965 63.465053l136.644796 136.644797v0.383474h-111.84677a44.930445 44.930445 0 1 0 0 89.860891h111.84677v77.909264h-111.84677a44.930445 44.930445 0 1 0 0 89.860891h111.84677v123.862308a44.930445 44.930445 0 0 0 89.860891 0v-123.862308h111.84677a44.930445 44.930445 0 1 0 0-89.860891H557.390548V513.515364h111.84677z" p-id="1020"></path></svg>