<?xml version="1.0" standalone="no"?><!DOCTYPE svg PUBLIC "-//W3C//DTD SVG 1.1//EN" "http://www.w3.org/Graphics/SVG/1.1/DTD/svg11.dtd"><svg t="1652337566285" class="icon" viewBox="0 0 1024 1024" version="1.1" xmlns="http://www.w3.org/2000/svg" p-id="2244" xmlns:xlink="http://www.w3.org/1999/xlink" width="48" height="48"><defs><style type="text/css">@font-face { font-family: feedback-iconfont; src: url("//at.alicdn.com/t/font_1031158_u69w8yhxdu.woff2?t=1630033759944") format("woff2"), url("//at.alicdn.com/t/font_1031158_u69w8yhxdu.woff?t=1630033759944") format("woff"), url("//at.alicdn.com/t/font_1031158_u69w8yhxdu.ttf?t=1630033759944") format("truetype"); }
</style></defs><path d="M558.341 924.506c-34.114 0.001-70.108-4.144-107.776-12.433-53.566-11.79-107.063-31.609-143.102-53.018-57.986-34.444-77.069-109.375-42.625-167.361 34.445-57.986 109.374-77.069 167.361-42.624 5.014 2.978 31.733 15.859 70.863 24.472 34.959 7.694 66.831 8.751 87.441 2.895 12.983-3.688 16.304-8.362 19.295-14.091 19.552-37.44 27.823-76.863 24.584-117.175-1.871-23.286-7.354-39.951-7.405-40.071-26.528-62.008 2.235-133.782 64.243-160.31 62.008-26.53 133.782 2.234 160.311 64.243 3.482 8.142 21.119 52.021 26.307 116.573 6.884 85.667-10.938 172.046-51.541 249.798-35.284 67.564-93.742 114.585-169.057 135.978-30.797 8.748-63.855 13.123-98.899 13.124z" fill="#E3B933" p-id="2245"></path><path d="M1018.865 596.432l-22.814-40.007 5.65-4.323-26.172-43.604-4.551 3.962-224.529-393.73a8.792 8.792 0 0 0-6.629-4.38L613.006 99.696a8.85 8.85 0 0 0-1.003-0.058l-200.708-0.145h-0.007c-0.337 0-0.674 0.02-1.009 0.059L282.225 114.35a8.792 8.792 0 0 0-6.642 4.402L52.287 513.148l-5.281-4.65-26.173 43.604 6.493 5.134-22.205 39.218a8.795 8.795 0 0 0 2.221 11.248l89.699 70.44a8.792 8.792 0 0 0 12.595-1.817L223.181 516.77l16.499 389.178a8.793 8.793 0 0 0 8.785 8.421h525.116a8.792 8.792 0 0 0 8.785-8.421l16.479-388.717 110.579 159.015a8.791 8.791 0 0 0 12.47 2.031l94.584-70.44a8.787 8.787 0 0 0 2.387-11.405zM239.664 490.417a8.795 8.795 0 0 0-15.949-4.727L100.652 658.618 24.148 598.54l17.137-30.266 66.764 52.795 25.762-36.14-68.038-59.907 222.911-393.717 85.206-9.846-38.17 85.134a6.839 6.839 0 0 0 4.549 9.424l86.721 22.135-100.071 56.717a6.842 6.842 0 0 0-1.878 10.332L462.96 470.473c2.42 2.9 6.732 3.289 9.632 0.869s3.29-6.732 0.869-9.633L340.792 302.728l99.559-56.427 45.706 190.957v406.634a6.84 6.84 0 0 0 13.678 0V436.45c0-0.536-0.063-1.07-0.188-1.592l-47.578-198.777a6.825 6.825 0 0 0-0.9-3.762l-27.581-115.231 176.522 0.127-27.551 115.104a6.826 6.826 0 0 0-0.901 3.762L523.98 434.858a6.828 6.828 0 0 0-0.188 1.592v460.335h-266.9l-17.228-406.368zM918.676 658.75l-120.29-172.981a8.793 8.793 0 1 0-16.005 4.648l-17.227 406.368H537.471V437.258l45.705-190.957 99.56 56.427-132.67 158.981a6.84 6.84 0 1 0 10.501 8.764l137.919-165.271a6.844 6.844 0 0 0 1.479-5.605 6.844 6.844 0 0 0-3.356-4.727l-100.071-56.717 86.722-22.135a6.84 6.84 0 0 0 4.55-9.424l-38.089-84.953 83.659 9.667 224.073 392.93-69.706 60.692 23.808 36.14 70.402-53.861 17.778 31.175-81.059 60.366z" fill="#D32055" p-id="2246"></path><path d="M628.32 572.369a6.839 6.839 0 1 0-9.672 9.672l116.167 116.167a6.819 6.819 0 0 0 4.835 2.003 6.839 6.839 0 0 0 4.836-11.675L628.32 572.369zM395.207 572.369L279.041 688.536a6.84 6.84 0 0 0 4.836 11.675c1.75 0 3.5-0.668 4.835-2.003l116.167-116.167a6.84 6.84 0 0 0 0-9.672 6.84 6.84 0 0 0-9.672 0z" fill="#D32055" p-id="2247"></path></svg>